<?xml version="1.0" encoding="UTF-8"?>
<svg id="Ebene_1" xmlns="http://www.w3.org/2000/svg" version="1.1" viewBox="0 0 299.62 141.16">
  <!-- Generator: Adobe Illustrator 29.3.1, SVG Export Plug-In . SVG Version: 2.1.0 Build 151)  -->
  <defs>
    <style>
      .st0 {
        fill: #e6320f;
      }
    </style>
  </defs>
  <g>
    <path d="M275.71,122.5c-1.25,0-2.54-.58-2.54-2.02,0-1.15,1.08-2.02,2.81-2.02s2.9.79,2.9.79v1.56s-1.2,1.68-3.17,1.68M276.07,112.61c-2.42,0-4.15,1.13-4.15,1.13l.84,1.68s1.63-.94,3.31-.94c.89,0,2.81.31,2.81,2.62v.6s-1.3-.91-3.34-.91c-2.5,0-4.39,1.54-4.39,3.7,0,2.4,2.14,3.79,4.13,3.79,2.52,0,3.77-1.9,3.77-1.9v1.61h1.85v-7.3c0-2.06-1.56-4.08-4.82-4.08M264.43,109.35c0,.74.62,1.37,1.37,1.37s1.37-.62,1.37-1.37-.62-1.37-1.37-1.37-1.37.62-1.37,1.37M264.79,123.99h2.02v-11.09h-2.02v11.09ZM259.79,112.61c-2.11,0-3.1,1.99-3.1,1.99v-1.7h-1.87v11.09h2.02v-7.63s.79-1.87,2.54-1.87c.84,0,1.27.24,1.27.24l.74-1.82s-.7-.29-1.61-.29M243.4,114.73h2.16v6.07c0,2.45,1.75,3.48,3.34,3.48.65,0,1.34-.14,2.3-.67l-.74-1.66s-.65.46-1.27.46c-1.08,0-1.61-.62-1.61-1.7v-5.98h3.46v-1.82h-3.46v-3.38h-2.02v3.38h-2.16v1.82ZM231.28,121.95s1.63,2.33,4.75,2.33c2.14,0,4.39-1.1,4.39-3.24,0-2.26-1.8-3.05-3.91-3.5-1.82-.38-2.69-.84-2.69-1.68,0-.72.7-1.42,2.11-1.42,1.68,0,2.78,1.22,2.78,1.22l1.32-1.37s-1.49-1.68-4.1-1.68c-2.47,0-4.08,1.58-4.08,3.19,0,2.09,1.68,3.02,4.06,3.5,1.7.34,2.52.82,2.52,1.78,0,.89-1.27,1.37-2.4,1.37-2.18,0-3.36-1.8-3.36-1.8l-1.39,1.3ZM222.21,124.28c2.4,0,3.41-1.99,3.41-1.99v1.7h1.87v-11.09h-2.02v7.68s-.89,1.82-2.76,1.82c-1.49,0-2.66-.82-2.66-2.71v-6.79h-2.02v7.13c0,2.74,1.97,4.25,4.18,4.25M207.38,110.07l2.88,7.46h-5.76l2.88-7.46ZM199.84,123.99h2.16l1.75-4.54h7.25l1.75,4.54h2.11l-6.55-16.8h-1.87l-6.6,16.8ZM182.78,114.73h2.3v9.26h2.02v-9.26h2.88v-1.82h-2.88v-3.7c0-1.08.6-1.78,1.68-1.78.62,0,1.3.43,1.3.43l.74-1.66c-.96-.53-1.68-.65-2.33-.65-1.58,0-3.41,1.18-3.41,3.53v3.82h-2.3v1.82ZM174.38,122.41c-2.23,0-3.7-1.78-3.7-3.96s1.46-3.96,3.7-3.96,3.7,1.78,3.7,3.96-1.46,3.96-3.7,3.96M174.38,112.61c-3.26,0-5.71,2.57-5.71,5.83s2.45,5.83,5.71,5.83,5.71-2.57,5.71-5.83-2.45-5.83-5.71-5.83M156.57,120.82s-1.08,1.58-3.24,1.58-3.7-1.78-3.7-3.96,1.46-3.96,3.7-3.96c1.97,0,3.05,1.34,3.05,1.34l1.37-1.22s-1.58-1.99-4.42-1.99c-3.26,0-5.71,2.59-5.71,5.83s2.45,5.83,5.71,5.83c2.93,0,4.54-2.14,4.54-2.14l-1.3-1.32ZM141.14,109.35c0,.74.62,1.37,1.37,1.37s1.37-.62,1.37-1.37-.62-1.37-1.37-1.37-1.37.62-1.37,1.37M141.5,123.99h2.02v-11.09h-2.02v11.09ZM134.18,123.99h2.02v-18.14h-2.02v18.14ZM121.05,116.41s1.06-1.92,3.26-1.92,3.67,1.78,3.67,3.96-1.42,3.96-3.67,3.96-3.26-1.92-3.26-1.92v-4.08ZM124.63,112.61c-2.45,0-3.58,1.66-3.58,1.66v-8.42h-2.02v18.14h1.85v-1.61s1.08,1.9,3.74,1.9c3,0,5.38-2.57,5.38-5.83s-2.38-5.83-5.38-5.83M108.81,124.28c2.4,0,3.41-1.99,3.41-1.99v1.7h1.87v-11.09h-2.02v7.68s-.89,1.82-2.76,1.82c-1.49,0-2.66-.82-2.66-2.71v-6.79h-2.02v7.13c0,2.74,1.97,4.25,4.18,4.25M91.94,116.38s1.06-1.9,3.26-1.9,3.67,1.78,3.67,3.96-1.42,3.96-3.67,3.96-3.26-1.9-3.26-1.9v-4.13ZM89.92,112.9v16.61h2.02v-6.89c.38.5,1.54,1.66,3.58,1.66,3,0,5.38-2.57,5.38-5.83s-2.38-5.83-5.38-5.83c-2.64,0-3.74,1.9-3.74,1.9v-1.61h-1.85ZM77.25,117.49c.14-1.15,1.13-3,3.53-3,2.23,0,3.36,1.75,3.43,3h-6.96ZM80.78,112.61c-3.34,0-5.54,2.59-5.54,5.83s2.42,5.83,5.78,5.83c2.93,0,4.61-2.18,4.61-2.18l-1.27-1.32s-1.15,1.63-3.34,1.63-3.7-1.56-3.82-3.24h8.95c.02-.26.02-.43.02-.65,0-3.58-2.3-5.9-5.4-5.9M62.2,123.99h2.02v-6.86h1.56l4.54,6.86h2.42l-4.66-7.03c.48-.07,4.1-.82,4.1-4.8,0-3-2.28-4.97-5.62-4.97h-4.37v16.8ZM66.69,115.21h-2.47v-6.1h2.47c2.26,0,3.48,1.2,3.48,3.05s-1.22,3.05-3.48,3.05"/>
    <path d="M209.23,82.61c-1.92,0-2.93,1.15-3.26,1.63v-8.4h-2.02v18.14h2.02v-7.63s.96-1.87,2.76-1.87c1.49,0,2.66.82,2.66,2.71v6.79h2.02v-7.13c0-2.74-1.97-4.25-4.18-4.25M198.81,90.82s-1.08,1.58-3.24,1.58-3.7-1.78-3.7-3.96,1.46-3.96,3.7-3.96c1.97,0,3.05,1.34,3.05,1.34l1.37-1.22s-1.58-1.99-4.42-1.99c-3.26,0-5.71,2.59-5.71,5.83s2.45,5.83,5.71,5.83c2.93,0,4.54-2.14,4.54-2.14l-1.3-1.32ZM186.38,82.61c-2.11,0-3.1,1.99-3.1,1.99v-1.7h-1.87v11.09h2.02v-7.63s.79-1.87,2.54-1.87c.84,0,1.27.24,1.27.24l.74-1.82s-.7-.29-1.61-.29M171.71,92.5c-1.25,0-2.54-.58-2.54-2.02,0-1.15,1.08-2.02,2.81-2.02s2.9.79,2.9.79v1.56s-1.2,1.68-3.17,1.68M172.07,82.61c-2.42,0-4.15,1.13-4.15,1.13l.84,1.68s1.63-.94,3.31-.94c.89,0,2.81.31,2.81,2.62v.6s-1.3-.91-3.34-.91c-2.5,0-4.39,1.54-4.39,3.7,0,2.4,2.14,3.79,4.13,3.79,2.52,0,3.77-1.9,3.77-1.9v1.61h1.85v-7.3c0-2.06-1.56-4.08-4.82-4.08M155.01,87.49c.14-1.15,1.13-3,3.53-3,2.23,0,3.36,1.75,3.43,3h-6.96ZM158.54,82.61c-3.34,0-5.54,2.59-5.54,5.83s2.42,5.83,5.78,5.83c2.93,0,4.61-2.18,4.61-2.18l-1.27-1.32s-1.15,1.63-3.34,1.63-3.7-1.56-3.82-3.24h8.95c.02-.26.02-.43.02-.65,0-3.58-2.3-5.9-5.4-5.9M140.68,91.95s1.63,2.33,4.75,2.33c2.14,0,4.39-1.1,4.39-3.24,0-2.26-1.8-3.05-3.91-3.5-1.82-.38-2.69-.84-2.69-1.68,0-.72.7-1.42,2.11-1.42,1.68,0,2.78,1.22,2.78,1.22l1.32-1.37s-1.49-1.68-4.1-1.68c-2.47,0-4.08,1.58-4.08,3.19,0,2.09,1.68,3.02,4.06,3.5,1.7.34,2.52.82,2.52,1.78,0,.89-1.27,1.37-2.4,1.37-2.18,0-3.36-1.8-3.36-1.8l-1.39,1.3ZM128.73,87.49c.14-1.15,1.13-3,3.53-3,2.23,0,3.36,1.75,3.43,3h-6.96ZM132.26,82.61c-3.34,0-5.54,2.59-5.54,5.83s2.42,5.83,5.78,5.83c2.93,0,4.61-2.18,4.61-2.18l-1.27-1.32s-1.15,1.63-3.34,1.63-3.7-1.56-3.82-3.24h8.95c.02-.26.02-.43.02-.65,0-3.58-2.3-5.9-5.4-5.9M113.2,93.99h2.02v-6.86h1.56l4.54,6.86h2.43l-4.66-7.03c.48-.07,4.1-.82,4.1-4.8,0-3-2.28-4.97-5.62-4.97h-4.37v16.8ZM117.69,85.21h-2.47v-6.1h2.47c2.26,0,3.48,1.2,3.48,3.05s-1.22,3.05-3.48,3.05M97.65,90.49s-1.06,1.92-3.26,1.92-3.67-1.78-3.67-3.96,1.46-3.96,3.67-3.96,3.26,1.92,3.26,1.92v4.08ZM94.08,82.61c-3,0-5.38,2.57-5.38,5.83s2.38,5.83,5.38,5.83c2.66,0,3.74-1.9,3.74-1.9v1.61h1.85v-18.14h-2.02v8.42s-1.13-1.66-3.58-1.66M80.78,82.61c-2.4,0-3.41,1.85-3.41,1.85v-1.56h-1.87v11.09h2.02v-7.63s.96-1.87,2.76-1.87c1.49,0,2.66.82,2.66,2.71v6.79h2.02v-7.13c0-2.74-1.97-4.25-4.18-4.25M65.8,92.5c-1.25,0-2.54-.58-2.54-2.02,0-1.15,1.08-2.02,2.81-2.02s2.9.79,2.9.79v1.56s-1.2,1.68-3.17,1.68M66.16,82.61c-2.42,0-4.15,1.13-4.15,1.13l.84,1.68s1.63-.94,3.31-.94c.89,0,2.81.31,2.81,2.62v.6s-1.3-.91-3.34-.91c-2.5,0-4.39,1.54-4.39,3.7,0,2.4,2.14,3.79,4.13,3.79,2.52,0,3.77-1.9,3.77-1.9v1.61h1.85v-7.3c0-2.06-1.56-4.08-4.82-4.08"/>
    <path d="M238.48,57.49c.14-1.15,1.13-3,3.53-3,2.23,0,3.36,1.75,3.43,3h-6.96ZM242.01,52.61c-3.34,0-5.54,2.59-5.54,5.83s2.42,5.83,5.78,5.83c2.93,0,4.61-2.18,4.61-2.18l-1.27-1.32s-1.15,1.63-3.34,1.63-3.7-1.56-3.82-3.24h8.95c.02-.26.02-.43.02-.65,0-3.58-2.3-5.9-5.4-5.9M232.53,60.82s-1.08,1.58-3.24,1.58-3.7-1.78-3.7-3.96,1.46-3.96,3.7-3.96c1.97,0,3.05,1.34,3.05,1.34l1.37-1.22s-1.58-1.99-4.42-1.99c-3.26,0-5.71,2.59-5.71,5.83s2.45,5.83,5.71,5.83c2.93,0,4.54-2.14,4.54-2.14l-1.3-1.32ZM215.66,52.61c-2.4,0-3.41,1.85-3.41,1.85v-1.56h-1.87v11.09h2.02v-7.63s.96-1.87,2.76-1.87c1.49,0,2.66.82,2.66,2.71v6.79h2.02v-7.13c0-2.74-1.97-4.25-4.18-4.25M197.71,57.49c.14-1.15,1.13-3,3.53-3,2.23,0,3.36,1.75,3.43,3h-6.96ZM201.23,52.61c-3.34,0-5.54,2.59-5.54,5.83s2.42,5.83,5.78,5.83c2.93,0,4.61-2.18,4.61-2.18l-1.27-1.32s-1.15,1.63-3.34,1.63-3.7-1.56-3.82-3.24h8.95c.02-.26.02-.43.02-.65,0-3.58-2.3-5.9-5.4-5.9M189.21,49.35c0,.74.62,1.37,1.37,1.37s1.37-.62,1.37-1.37-.62-1.37-1.37-1.37-1.37.62-1.37,1.37M189.57,63.99h2.02v-11.09h-2.02v11.09ZM184.51,60.82s-1.08,1.58-3.24,1.58-3.7-1.78-3.7-3.96,1.46-3.96,3.7-3.96c1.97,0,3.05,1.34,3.05,1.34l1.37-1.22s-1.58-1.99-4.42-1.99c-3.26,0-5.71,2.59-5.71,5.83s2.45,5.83,5.71,5.83c2.93,0,4.54-2.14,4.54-2.14l-1.3-1.32ZM170.04,59.72c0,1.73-1.54,2.64-3.14,2.64-2.66,0-3.67-2.59-3.67-2.59l-1.68,1.01s1.37,3.5,5.35,3.5c2.95,0,5.21-1.82,5.21-4.56s-1.61-3.79-4.18-4.97c-2.3-1.06-3.74-1.73-3.74-3.43,0-1.2.98-2.5,2.83-2.5,2.09,0,3.26,1.75,3.26,1.75l1.51-1.22s-1.61-2.45-4.78-2.45-4.85,2.45-4.85,4.42c0,2.86,2.16,3.98,4.61,5.11,1.87.86,3.26,1.54,3.26,3.29M145.82,67.4l1.7.6,2.06-5.59-1.82-.62-1.94,5.62ZM138.09,52.61c-2.4,0-3.41,1.85-3.41,1.85v-1.56h-1.87v11.09h2.02v-7.63s.96-1.87,2.76-1.87c1.49,0,2.66.82,2.66,2.71v6.79h2.02v-7.13c0-2.74-1.97-4.25-4.18-4.25M120.14,57.49c.14-1.15,1.13-3,3.53-3,2.23,0,3.36,1.75,3.43,3h-6.96ZM123.67,52.61c-3.34,0-5.54,2.59-5.54,5.83s2.42,5.83,5.78,5.83c2.93,0,4.61-2.18,4.61-2.18l-1.27-1.32s-1.15,1.63-3.34,1.63-3.7-1.56-3.82-3.24h8.95c.02-.26.02-.43.02-.65,0-3.58-2.3-5.9-5.4-5.9M110.54,52.61c-2.42,0-3.31,2.06-3.31,2.06,0,0-.7-2.06-3.46-2.06-2.26,0-3.07,1.92-3.07,1.92v-1.63h-1.87v11.09h2.02v-7.73s.74-1.78,2.38-1.78c1.44,0,2.38.89,2.38,2.69v6.82h2.02v-7.73s.72-1.78,2.38-1.78c1.44,0,2.38.89,2.38,2.69v6.82h2.02v-7.13c0-2.74-1.54-4.25-3.84-4.25M89.37,62.41c-2.23,0-3.7-1.78-3.7-3.96s1.46-3.96,3.7-3.96,3.7,1.78,3.7,3.96-1.46,3.96-3.7,3.96M89.37,52.61c-3.26,0-5.71,2.57-5.71,5.83s2.45,5.83,5.71,5.83,5.71-2.57,5.71-5.83-2.45-5.83-5.71-5.83M82.94,47.19h-2.14l-4.3,11.64-4.08-11.64h-1.46l-4.13,11.64-4.25-11.64h-2.26l6.46,17.28,4.85-13.22,4.82,13.22,6.48-17.28Z"/>
    <path d="M237.67,39.01s.98.79,2.35.79c1.18,0,2.42-.62,3.07-2.23.26-.65,5.83-14.66,5.83-14.66h-2.18l-3.31,8.76-3.89-8.76h-2.28l5.18,11.14-.86,2.18c-.43,1.08-.84,1.7-1.73,1.7-.62,0-1.32-.58-1.32-.58l-.86,1.66ZM233.92,22.61c-2.11,0-3.1,1.99-3.1,1.99v-1.7h-1.87v11.09h2.02v-7.63s.79-1.87,2.54-1.87c.84,0,1.27.24,1.27.24l.74-1.82s-.7-.29-1.61-.29M217.53,24.73h2.16v6.07c0,2.45,1.75,3.48,3.34,3.48.65,0,1.34-.14,2.3-.67l-.74-1.66s-.65.46-1.27.46c-1.08,0-1.61-.62-1.61-1.7v-5.98h3.46v-1.82h-3.46v-3.38h-2.02v3.38h-2.16v1.82ZM205.41,31.95s1.63,2.33,4.75,2.33c2.14,0,4.39-1.1,4.39-3.24,0-2.26-1.8-3.05-3.91-3.5-1.82-.38-2.69-.84-2.69-1.68,0-.72.7-1.42,2.11-1.42,1.68,0,2.78,1.22,2.78,1.22l1.32-1.37s-1.49-1.68-4.1-1.68c-2.47,0-4.08,1.58-4.08,3.19,0,2.09,1.68,3.02,4.06,3.5,1.7.34,2.52.82,2.52,1.78,0,.89-1.27,1.37-2.4,1.37-2.18,0-3.36-1.8-3.36-1.8l-1.39,1.3ZM198.88,19.35c0,.74.62,1.37,1.37,1.37s1.37-.62,1.37-1.37-.62-1.37-1.37-1.37-1.37.62-1.37,1.37M199.24,33.99h2.02v-11.09h-2.02v11.09ZM190.2,22.61c-2.4,0-3.41,1.85-3.41,1.85v-1.56h-1.87v11.09h2.02v-7.63s.96-1.87,2.76-1.87c1.49,0,2.66.82,2.66,2.71v6.79h2.02v-7.13c0-2.74-1.97-4.25-4.18-4.25M177.67,19.35c0,.74.62,1.37,1.37,1.37s1.37-.62,1.37-1.37-.62-1.37-1.37-1.37-1.37.62-1.37,1.37M178.03,33.99h2.02v-11.09h-2.02v11.09ZM157.22,17.19v16.8h2.02v-13.13l5.74,9.31,5.74-9.34v13.15h2.02v-16.8h-1.94l-5.76,9.38-5.78-9.38h-2.02ZM141.67,33.99h2.02V15.85h-2.02v18.14ZM131.54,32.5c-1.25,0-2.54-.58-2.54-2.02,0-1.15,1.08-2.02,2.81-2.02s2.9.79,2.9.79v1.56s-1.2,1.68-3.17,1.68M131.9,22.61c-2.42,0-4.15,1.13-4.15,1.13l.84,1.68s1.63-.94,3.31-.94c.89,0,2.81.31,2.81,2.62v.6s-1.3-.91-3.34-.91c-2.5,0-4.39,1.54-4.39,3.7,0,2.4,2.14,3.79,4.13,3.79,2.52,0,3.77-1.9,3.77-1.9v1.61h1.85v-7.3c0-2.06-1.56-4.08-4.82-4.08M123.16,22.61c-2.11,0-3.1,1.99-3.1,1.99v-1.7h-1.87v11.09h2.02v-7.63s.79-1.87,2.54-1.87c.84,0,1.27.24,1.27.24l.74-1.82s-.7-.29-1.61-.29M105.52,27.49c.14-1.15,1.13-3,3.53-3,2.23,0,3.36,1.75,3.43,3h-6.96ZM109.05,22.61c-3.34,0-5.54,2.59-5.54,5.83s2.42,5.83,5.78,5.83c2.93,0,4.61-2.18,4.61-2.18l-1.27-1.32s-1.15,1.63-3.34,1.63-3.7-1.56-3.82-3.24h8.95c.02-.26.02-.43.02-.65,0-3.58-2.3-5.9-5.4-5.9M97.32,30.49s-1.06,1.92-3.26,1.92-3.67-1.78-3.67-3.96,1.46-3.96,3.67-3.96,3.26,1.92,3.26,1.92v4.08ZM93.74,22.61c-3,0-5.38,2.57-5.38,5.83s2.38,5.83,5.38,5.83c2.66,0,3.74-1.9,3.74-1.9v1.61h1.85V15.85h-2.02v8.42s-1.13-1.66-3.58-1.66M76.46,27.49c.14-1.15,1.13-3,3.53-3,2.23,0,3.36,1.75,3.43,3h-6.96ZM79.99,22.61c-3.34,0-5.54,2.59-5.54,5.83s2.42,5.83,5.78,5.83c2.93,0,4.61-2.18,4.61-2.18l-1.27-1.32s-1.15,1.63-3.34,1.63-3.7-1.56-3.82-3.24h8.95c.02-.26.02-.43.02-.65,0-3.58-2.3-5.9-5.4-5.9M64.22,19.11h7.46v-1.92h-9.48v16.8h2.02v-7.66h6.98v-1.92h-6.98v-5.3Z"/>
  </g>
  <polygon class="st0" points="43.23 22.68 43.23 17.01 17.01 17.01 19.65 22.68 43.23 22.68"/>
  <polygon class="st0" points="24.94 34.01 43.23 34.01 43.23 28.35 22.29 28.35 24.94 34.01"/>
</svg>