<?xml version="1.0" encoding="UTF-8"?>
<svg id="Ebene_1" data-name="Ebene 1" xmlns="http://www.w3.org/2000/svg" viewBox="0 0 603.59 120.39">
  <defs>
    <style>
      .cls-1 {
        fill: #74749b;
      }

      .cls-2 {
        fill: #1f3363;
      }
    </style>
  </defs>
  <g>
    <path class="cls-2" d="M135.57,61.63c0-16.29,12.83-28.79,28.96-28.79,10.13,0,18.49,4.9,23.13,11.99l-4.9,3.88c-4.14-6.08-10.38-9.79-18.15-9.79-12.58,0-22.2,9.71-22.2,22.71s9.62,22.71,22.2,22.71c7.77,0,14.01-3.71,18.15-9.79l4.9,3.88c-4.47,7.09-13,11.99-23.13,11.99-16.12,0-28.96-12.49-28.96-28.79Z"/>
    <path class="cls-2" d="M199.56,33.77h6.58v49.81h26.42v5.91h-33.01v-55.72Z"/>
    <path class="cls-2" d="M276.21,78.17h-27.35l-4.73,11.31h-6.92l24.14-56.65h2.45l24.14,56.65h-7.01l-4.73-11.31ZM262.54,44.83l-11.14,27.44h22.29l-11.14-27.44Z"/>
    <path class="cls-2" d="M334.04,89.49l-17.31-23.38h-11.9v23.38h-6.58v-55.72h19.59c10.97,0,17.81,6.75,17.81,16.12,0,7.51-4.39,13.34-11.73,15.45l17.81,24.14h-7.68ZM304.83,60.19h12.75c7.34,0,11.23-4.22,11.23-10.21s-3.88-10.3-11.23-10.3h-12.75v20.51Z"/>
    <path class="cls-2" d="M350.75,33.77h6.58v55.72h-6.58v-55.72Z"/>
    <path class="cls-2" d="M406.56,78.17h-27.35l-4.73,11.31h-6.92l24.14-56.65h2.45l24.14,56.65h-7.01l-4.73-11.31ZM392.88,44.83l-11.14,27.44h22.29l-11.14-27.44Z"/>
    <path class="cls-2" d="M428.59,33.77h6.58v22.96h31.24v-22.96h6.58v55.72h-6.58v-26.85h-31.24v26.85h-6.58v-55.72Z"/>
    <path class="cls-2" d="M485.15,60.19h20.18v5.49h-20.18v-5.49Z"/>
    <path class="cls-2" d="M548.13,78.17h-27.35l-4.73,11.31h-6.92l24.14-56.65h2.45l24.14,56.65h-7.01l-4.73-11.31ZM534.45,44.83l-11.14,27.44h22.29l-11.14-27.44Z"/>
    <path class="cls-2" d="M577.34,39.68h-19.59v-5.91h45.84v5.91h-19.67v49.81h-6.58v-49.81Z"/>
  </g>
  <g>
    <path class="cls-2" d="M60.19,10.5c27.4,0,49.69,22.29,49.69,49.69s-22.29,49.69-49.69,49.69S10.5,87.59,10.5,60.19,32.79,10.5,60.19,10.5M60.19,3.5C28.93,3.5,3.5,28.93,3.5,60.19s25.43,56.69,56.69,56.69,56.69-25.43,56.69-56.69S91.45,3.5,60.19,3.5h0Z"/>
    <g>
      <g>
        <circle class="cls-2" cx="60.22" cy="96.92" r="4.16"/>
        <circle class="cls-2" cx="34.24" cy="86.18" r="4.16"/>
        <circle class="cls-2" cx="86.14" cy="34.21" r="4.16"/>
        <circle class="cls-2" cx="60.17" cy="23.47" r="4.16"/>
        <circle class="cls-2" cx="96.92" cy="60.17" r="4.16"/>
        <circle class="cls-2" cx="23.47" cy="60.22" r="4.16"/>
        <circle class="cls-2" cx="34.21" cy="34.24" r="4.16"/>
      </g>
      <g>
        <circle class="cls-2" cx="60.18" cy="40.82" r="8.55" transform="translate(-1.18 1.79) rotate(-1.69)"/>
        <circle class="cls-2" cx="49.32" cy="75.64" r="8.55" transform="translate(-39.03 56.99) rotate(-44.98)"/>
        <circle class="cls-1" cx="78.56" cy="53.92" r="8.55" transform="translate(-15.12 71.34) rotate(-45)"/>
        <circle class="cls-1" cx="42.04" cy="54.23" r="8.55" transform="translate(-26.03 45.61) rotate(-45)"/>
      </g>
    </g>
  </g>
</svg>