<svg viewBox="0 0 1200 320" xmlns="http://www.w3.org/2000/svg" id="__root__"><path d="M431.23 275.477c3.349 0 5.019-1.146 5.019-3.432 0-.708-.15-1.302-.447-1.808a4.34 4.34 0 0 0-1.199-1.284 8.724 8.724 0 0 0-1.74-.94 57.81 57.81 0 0 0-2.062-.791 21.77 21.77 0 0 1-2.375-.972 8.449 8.449 0 0 1-1.952-1.293 5.378 5.378 0 0 1-1.303-1.765 5.792 5.792 0 0 1-.487-2.48c0-2.003.683-3.566 2.053-4.688 1.367-1.127 3.248-1.685 5.648-1.685 1.388 0 2.647.153 3.784.447 1.131.291 1.962.62 2.495.975l-1.027 2.61a8.856 8.856 0 0 0-2.062-.848c-.92-.276-1.977-.408-3.19-.408-.613 0-1.186.062-1.716.196a4.45 4.45 0 0 0-1.388.598 2.957 2.957 0 0 0-.941 1.002 2.899 2.899 0 0 0-.346 1.434c0 .62.116 1.137.361 1.563.242.414.589.781 1.027 1.103.438.313.95.613 1.535.87a26.09 26.09 0 0 0 1.93.791c.996.398 1.897.8 2.728 1.195a9.082 9.082 0 0 1 2.145 1.416c.607.558 1.076 1.207 1.407 1.967s.493 1.68.493 2.761c0 1.998-.73 3.543-2.194 4.628-1.468 1.072-3.53 1.611-6.193 1.611a16.49 16.49 0 0 1-2.495-.177 18.025 18.025 0 0 1-2.038-.432 11.46 11.46 0 0 1-1.529-.524 13.318 13.318 0 0 1-1.011-.481l.956-2.642c.509.282 1.278.604 2.314.956 1.035.356 2.304.527 3.8.527zm27.22-6.312c0 1.372-.196 2.604-.594 3.701a8.274 8.274 0 0 1-1.67 2.847 7.37 7.37 0 0 1-2.556 1.833c-.99.423-2.071.643-3.239.643s-2.249-.22-3.236-.643a7.37 7.37 0 0 1-2.555-1.833 8.274 8.274 0 0 1-1.67-2.85 10.747 10.747 0 0 1-.598-3.698c0-1.34.196-2.562.597-3.678a8.274 8.274 0 0 1 1.67-2.859 7.317 7.317 0 0 1 2.556-1.835c.987-.423 2.069-.644 3.236-.644s2.25.22 3.24.644a7.334 7.334 0 0 1 2.555 1.835 8.274 8.274 0 0 1 1.67 2.86c.398 1.115.595 2.337.595 3.677zm-3.205 0c0-1.937-.429-3.472-1.302-4.6-.87-1.137-2.053-1.704-3.552-1.704s-2.681.567-3.551 1.704c-.87 1.128-1.3 2.666-1.3 4.6 0 1.945.43 3.48 1.3 4.611.87 1.134 2.053 1.701 3.554 1.701s2.679-.564 3.549-1.7c.87-1.131 1.302-2.667 1.302-4.612zm14.997 8.994c-1.388 0-2.604-.227-3.646-.668a7.278 7.278 0 0 1-2.642-1.848 7.603 7.603 0 0 1-1.605-2.823 11.703 11.703 0 0 1-.528-3.616c0-1.323.19-2.53.583-3.637a8.458 8.458 0 0 1 1.63-2.853 7.176 7.176 0 0 1 2.596-1.882 8.344 8.344 0 0 1 3.416-.683c.766 0 1.545.07 2.314.196.766.135 1.501.346 2.21.635l-.69 2.604a7.437 7.437 0 0 0-1.606-.527 8.936 8.936 0 0 0-1.93-.196c-1.717 0-3.034.542-3.954 1.615-.907 1.085-1.36 2.66-1.36 4.728 0 .926.101 1.772.312 2.544.206.766.534 1.43.987 1.98a4.424 4.424 0 0 0 1.735 1.271c.704.297 1.566.448 2.577.448.818 0 1.553-.08 2.212-.23a7.692 7.692 0 0 0 1.55-.5l.433 2.577c-.18.11-.429.215-.76.316-.328.101-.705.187-1.122.267a19.594 19.594 0 0 1-1.339.196 11.936 11.936 0 0 1-1.373.086zm9.417-20.682a1.952 1.952 0 0 1-1.403-.552c-.386-.358-.582-.845-.582-1.464s.196-1.104.582-1.471a1.98 1.98 0 0 1 1.403-.543c.549 0 1.018.181 1.4.54.387.367.583.858.583 1.474s-.196 1.106-.582 1.467a1.952 1.952 0 0 1-1.4.549zm1.55 20.28h-3.073v-17.176h3.074zm10.837-17.608c1.228 0 2.273.166 3.12.478.845.322 1.528.778 2.046 1.358a5.26 5.26 0 0 1 1.113 2.077c.22.806.327 1.692.327 2.666v10.732l-1.103.18c-.478.08-1.011.15-1.609.221a78.3 78.3 0 0 1-1.93.178 26.363 26.363 0 0 1-2.069.08c-.962 0-1.857-.092-2.672-.298a5.933 5.933 0 0 1-2.114-.94 4.379 4.379 0 0 1-1.391-1.701 5.97 5.97 0 0 1-.49-2.543c0-.947.192-1.763.578-2.446a4.682 4.682 0 0 1 1.566-1.655 7.477 7.477 0 0 1 2.314-.922 12.711 12.711 0 0 1 3.732-.245c.328.03.644.08.941.135s.555.1.776.15c.22.037.376.076.462.092v-.855c0-.509-.055-1.012-.165-1.502a3.45 3.45 0 0 0-.595-1.327 2.939 2.939 0 0 0-1.167-.919 4.597 4.597 0 0 0-1.937-.352c-1.011 0-1.9.07-2.66.22a8.942 8.942 0 0 0-1.7.448l-.36-2.55c.393-.172 1.058-.343 1.984-.509s1.92-.25 3.003-.25zm.266 15.399a28.192 28.192 0 0 0 1.93-.055 8.121 8.121 0 0 0 1.401-.181v-5.118a4.005 4.005 0 0 0-1.072-.285 11.758 11.758 0 0 0-1.796-.107c-.463 0-.956.03-1.474.092-.521.07-.99.205-1.419.417s-.784.493-1.072.855a2.258 2.258 0 0 0-.436 1.44c0 1.1.356 1.87 1.06 2.298.706.423 1.662.644 2.878.644zm16.573 2.54c-1.891-.049-3.24-.447-4.03-1.226-.79-.766-1.183-1.964-1.183-3.597v-20.608l3.074-.53v20.647c0 .503.036.926.122 1.257a1.805 1.805 0 0 0 .432.79 1.912 1.912 0 0 0 .794.448c.328.1.735.18 1.223.245l-.43 2.574zm17.02-2.61c3.349 0 5.019-1.147 5.019-3.433 0-.708-.15-1.302-.448-1.808a4.34 4.34 0 0 0-1.201-1.284c-.509-.358-1.088-.674-1.74-.94s-1.334-.525-2.06-.791a21.77 21.77 0 0 1-2.378-.972 8.449 8.449 0 0 1-1.952-1.293 5.378 5.378 0 0 1-1.3-1.765 5.792 5.792 0 0 1-.486-2.48c0-2.003.683-3.566 2.053-4.688 1.363-1.127 3.248-1.685 5.644-1.685 1.389 0 2.651.153 3.788.447 1.128.291 1.961.62 2.494.975l-1.03 2.61a8.856 8.856 0 0 0-2.058-.848c-.92-.276-1.977-.408-3.194-.408-.612 0-1.182.062-1.716.196a4.45 4.45 0 0 0-1.388.598 2.957 2.957 0 0 0-.94 1.002 2.899 2.899 0 0 0-.344 1.434c0 .62.117 1.137.359 1.563.245.414.588.781 1.026 1.103.442.313.95.613 1.539.87.582.267 1.222.534 1.93.791.993.398 1.894.8 2.728 1.195a9.145 9.145 0 0 1 2.145 1.416c.606.558 1.075 1.207 1.403 1.967s.497 1.68.497 2.761c0 1.998-.73 3.543-2.198 4.628-1.464 1.072-3.524 1.611-6.19 1.611a16.49 16.49 0 0 1-2.494-.177 18.025 18.025 0 0 1-2.038-.432 11.46 11.46 0 0 1-1.532-.524 13.318 13.318 0 0 1-1.011-.481l.959-2.642c.508.282 1.278.604 2.31.956 1.036.356 2.308.527 3.803.527zm19.513 2.68c-1.388 0-2.604-.226-3.646-.667a7.278 7.278 0 0 1-2.642-1.848 7.606 7.606 0 0 1-1.606-2.823 11.703 11.703 0 0 1-.527-3.616c0-1.323.19-2.53.583-3.637a8.458 8.458 0 0 1 1.63-2.853 7.176 7.176 0 0 1 2.595-1.882 8.344 8.344 0 0 1 3.417-.683c.766 0 1.545.07 2.314.196.766.135 1.501.346 2.21.635l-.69 2.604a7.437 7.437 0 0 0-1.606-.527 8.936 8.936 0 0 0-1.93-.196c-1.717 0-3.034.542-3.954 1.615-.907 1.085-1.36 2.66-1.36 4.728 0 .926.1 1.772.312 2.544.206.766.534 1.43.987 1.98a4.424 4.424 0 0 0 1.735 1.271c.704.297 1.565.448 2.577.448.818 0 1.553-.08 2.212-.23a8.029 8.029 0 0 0 1.55-.5l.433 2.577c-.181.11-.43.215-.76.316-.328.101-.705.187-1.122.267a19.594 19.594 0 0 1-1.339.196 11.936 11.936 0 0 1-1.373.086zm9.423-20.681a1.952 1.952 0 0 1-1.403-.552c-.383-.358-.582-.845-.582-1.464s.199-1.104.582-1.471a1.98 1.98 0 0 1 1.403-.543c.552 0 1.02.181 1.404.54.383.367.582.858.582 1.474s-.2 1.106-.582 1.467a1.952 1.952 0 0 1-1.404.549zm1.554 20.28h-3.074v-17.176h3.074zm4.318-8.553c0-1.52.22-2.846.659-3.983.438-1.134 1.026-2.075 1.746-2.82a7.091 7.091 0 0 1 2.52-1.685 7.753 7.753 0 0 1 2.901-.567c2.31 0 4.091.723 5.323 2.164 1.229 1.443 1.848 3.637 1.848 6.594v.509c0 .214-.015.398-.03.582h-11.76c.123 1.777.644 3.135 1.55 4.06.902.926 2.314 1.389 4.23 1.389 1.078 0 1.98-.095 2.727-.285.735-.184 1.293-.368 1.66-.54l.43 2.574c-.374.203-1.027.405-1.968.625a13.912 13.912 0 0 1-3.18.338c-1.499 0-2.792-.227-3.883-.684-1.088-.447-1.992-1.072-2.697-1.866s-1.222-1.731-1.566-2.82a12.101 12.101 0 0 1-.511-3.585zm11.792-1.685c.024-1.388-.322-2.531-1.042-3.417-.714-.895-1.701-1.342-2.958-1.342-.704 0-1.323.14-1.866.417a4.45 4.45 0 0 0-1.37 1.072 4.917 4.917 0 0 0-.87 1.514 7.317 7.317 0 0 0-.417 1.756zm7.636-6.444c.705-.172 1.64-.362 2.807-.555a23.685 23.685 0 0 1 4.03-.3c1.363 0 2.5.19 3.401.573.901.392 1.624.925 2.164 1.624.542.69.925 1.52 1.146 2.491.217.971.328 2.038.328 3.209v9.64h-3.074v-8.982c0-1.057-.07-1.96-.211-2.712a4.68 4.68 0 0 0-.714-1.808 2.807 2.807 0 0 0-1.324-1.01 5.73 5.73 0 0 0-2.047-.317c-.328 0-.674.016-1.018.031-.352.025-.69.055-1.01.086s-.605.07-.865.12c-.251.036-.43.076-.54.091v14.504h-3.073v-16.682zm26.421 17.084c-1.388 0-2.604-.227-3.646-.668a7.278 7.278 0 0 1-2.642-1.848 7.606 7.606 0 0 1-1.609-2.823 11.7 11.7 0 0 1-.524-3.616c0-1.323.187-2.53.583-3.637.383-1.097.922-2.053 1.627-2.853a7.201 7.201 0 0 1 2.595-1.882 8.344 8.344 0 0 1 3.42-.683c.766 0 1.545.07 2.31.196.77.135 1.505.346 2.213.635l-.69 2.604a7.437 7.437 0 0 0-1.608-.527 8.936 8.936 0 0 0-1.93-.196c-1.717 0-3.034.542-3.95 1.615-.908 1.085-1.364 2.66-1.364 4.728 0 .926.1 1.772.315 2.544.203.766.533 1.43.987 1.98.454.551 1.027.974 1.731 1.271s1.57.448 2.58.448c.816 0 1.554-.08 2.21-.23a8.029 8.029 0 0 0 1.554-.5l.429 2.577c-.178.11-.43.215-.757.316a10.86 10.86 0 0 1-1.122.267 19.59 19.59 0 0 1-1.342.196 11.936 11.936 0 0 1-1.37.086zm6.944-8.955c0-1.52.22-2.846.659-3.983.438-1.134 1.027-2.075 1.747-2.82a7.091 7.091 0 0 1 2.519-1.685 7.75 7.75 0 0 1 2.899-.567c2.313 0 4.094.723 5.326 2.164 1.228 1.443 1.847 3.637 1.847 6.594v.509c0 .214-.015.398-.03.582h-11.758c.122 1.777.643 3.135 1.55 4.06.901.926 2.314 1.389 4.23 1.389 1.078 0 1.979-.095 2.726-.285.736-.184 1.294-.368 1.661-.54l.43 2.574c-.375.203-1.027.405-1.968.625a13.912 13.912 0 0 1-3.18.338c-1.5 0-2.793-.227-3.883-.684-1.088-.447-1.992-1.072-2.697-1.866s-1.223-1.731-1.566-2.82a12.101 12.101 0 0 1-.512-3.585zm11.792-1.685c.025-1.388-.322-2.531-1.042-3.417-.714-.895-1.7-1.342-2.957-1.342-.705 0-1.324.14-1.866.417a4.43 4.43 0 0 0-1.37 1.072 4.897 4.897 0 0 0-.87 1.514 7.317 7.317 0 0 0-.417 1.756zm11.626 8.029c1.257 0 2.188-.166 2.789-.503a1.673 1.673 0 0 0 .913-1.584 2.1 2.1 0 0 0-.895-1.778c-.597-.44-1.575-.94-2.941-1.492a49.325 49.325 0 0 1-1.897-.806 6.671 6.671 0 0 1-1.566-.971 4.263 4.263 0 0 1-1.06-1.358 4.309 4.309 0 0 1-.399-1.952c0-1.52.564-2.721 1.686-3.616 1.121-.888 2.656-1.339 4.596-1.339.484 0 .962.03 1.446.086.488.055.941.12 1.358.196s.785.16 1.103.251c.325.086.567.166.748.227l-.564 2.645a8.06 8.06 0 0 0-1.554-.543 9.962 9.962 0 0 0-2.54-.282c-.861 0-1.606.172-2.25.509a1.71 1.71 0 0 0-.955 1.609c0 .368.07.695.211.987a2.452 2.452 0 0 0 .665.775c.297.23.668.447 1.106.643s.966.408 1.585.629c.815.312 1.544.612 2.178.91a6.8 6.8 0 0 1 1.64 1.042c.447.392.797.87 1.042 1.434.236.564.361 1.247.361 2.062 0 1.594-.588 2.789-1.774 3.607-1.174.815-2.85 1.223-5.032 1.223-1.52 0-2.712-.135-3.567-.387a16.824 16.824 0 0 1-1.746-.579l.554-2.641c.353.132.92.328 1.686.594s1.795.399 3.073.399zm23.912-15.399c1.232 0 2.274.166 3.12.478.845.322 1.532.778 2.046 1.358a5.26 5.26 0 0 1 1.113 2.077c.22.806.33 1.692.33 2.666v10.732l-1.105.18c-.479.08-1.012.15-1.61.221-.594.062-1.237.123-1.927.178a26.363 26.363 0 0 1-2.068.08c-.966 0-1.86-.092-2.675-.298a5.933 5.933 0 0 1-2.115-.94 4.379 4.379 0 0 1-1.388-1.701 5.966 5.966 0 0 1-.493-2.543c0-.947.196-1.763.579-2.446a4.689 4.689 0 0 1 1.569-1.655c.655-.413 1.434-.72 2.31-.922a12.711 12.711 0 0 1 3.733-.245c.328.03.643.08.94.135s.558.1.776.15c.22.037.377.076.462.092v-.855c0-.509-.055-1.012-.162-1.502a3.45 3.45 0 0 0-.598-1.327 2.939 2.939 0 0 0-1.167-.919c-.493-.233-1.146-.352-1.937-.352-1.011 0-1.9.07-2.657.22a8.942 8.942 0 0 0-1.7.448l-.362-2.55c.392-.172 1.057-.343 1.983-.509a17.1 17.1 0 0 1 3.003-.25zm.266 15.399a28.192 28.192 0 0 0 1.931-.055 8.08 8.08 0 0 0 1.4-.181v-5.118a4.005 4.005 0 0 0-1.072-.285 11.761 11.761 0 0 0-1.796-.107c-.463 0-.956.03-1.474.092a4.59 4.59 0 0 0-1.419.417 3.095 3.095 0 0 0-1.072.855 2.258 2.258 0 0 0-.432 1.44c0 1.1.352 1.87 1.057 2.298.705.423 1.66.644 2.877.644zm11.43-14.473c.705-.172 1.64-.362 2.808-.555a23.685 23.685 0 0 1 4.03-.3c1.363 0 2.5.19 3.4.573.902.392 1.625.925 2.164 1.624.543.69.926 1.52 1.146 2.491.218.971.328 2.038.328 3.209v9.64h-3.073v-8.982c0-1.057-.07-1.96-.212-2.712a4.68 4.68 0 0 0-.71-1.808 2.807 2.807 0 0 0-1.328-1.01 5.73 5.73 0 0 0-2.047-.317c-.328 0-.674.016-1.017.031-.352.025-.69.055-1.011.086s-.604.07-.864.12c-.249.036-.43.076-.54.091v14.504h-3.073v-16.682zm30.06-8.418 3.073-.534v25.14c-.705.197-1.609.393-2.715.598a21.794 21.794 0 0 1-3.794.298 9.684 9.684 0 0 1-3.567-.629 7.793 7.793 0 0 1-2.712-1.786 7.897 7.897 0 0 1-1.731-2.823 10.872 10.872 0 0 1-.613-3.756c0-1.318.172-2.532.509-3.629.346-1.097.848-2.047 1.504-2.837a6.772 6.772 0 0 1 2.433-1.851 7.814 7.814 0 0 1 3.285-.668c.987 0 1.864.135 2.627.401.76.267 1.323.518 1.7.76zm0 11.552a6.343 6.343 0 0 0-1.625-.885 6.012 6.012 0 0 0-2.313-.43c-.877 0-1.63.154-2.256.479a4.128 4.128 0 0 0-1.538 1.324c-.398.557-.68 1.225-.861 1.991a11.384 11.384 0 0 0-.26 2.477c0 2.007.496 3.554 1.482 4.642.996 1.097 2.314 1.64 3.966 1.64.84 0 1.538-.04 2.093-.12a10.848 10.848 0 0 0 1.311-.245zm30.582-9.346h3.205v22.894h-3.205v-10.566H721.98v10.566h-3.209v-22.891h3.209v9.549h11.194v-9.549zm22.367 22.4c-.699.172-1.63.362-2.792.558a23.366 23.366 0 0 1-4.014.298c-1.318 0-2.43-.187-3.33-.573a5.44 5.44 0 0 1-2.18-1.637c-.551-.705-.95-1.538-1.195-2.494a12.98 12.98 0 0 1-.358-3.19v-9.644h3.073v8.985c0 2.093.328 3.591.987 4.492s1.771 1.355 3.34 1.355c.331 0 .668-.015 1.02-.03a29.75 29.75 0 0 0 1.833-.188 2.862 2.862 0 0 0 .552-.11v-14.504h3.064zm5.283-16.188a40.51 40.51 0 0 1 2.789-.555 23.427 23.427 0 0 1 4.014-.3c1.1 0 2.023.15 2.776.447.745.291 1.38.73 1.882 1.302a12.35 12.35 0 0 1 .73-.462c.33-.197.735-.393 1.225-.583s1.017-.352 1.612-.49a8.335 8.335 0 0 1 1.921-.214c1.318 0 2.4.19 3.24.573.83.392 1.489.931 1.96 1.639.479.705.791 1.545.957 2.507.171.974.248 2.031.248 3.178v9.64h-3.07v-8.982c0-1.01-.05-1.881-.15-2.607a4.974 4.974 0 0 0-.558-1.82 2.66 2.66 0 0 0-1.128-1.073 4.229 4.229 0 0 0-1.836-.347c-1.032 0-1.881.141-2.555.417-.675.273-1.128.521-1.37.745.178.57.306 1.198.398 1.881.086.68.123 1.395.123 2.146v9.643h-3.065v-8.985c0-1.01-.052-1.881-.162-2.607a5.455 5.455 0 0 0-.582-1.82 2.642 2.642 0 0 0-1.119-1.073 4.177 4.177 0 0 0-1.805-.347c-.306 0-.643.016-.986.031-.353.025-.69.055-1.012.086s-.613.07-.88.12c-.257.036-.437.076-.523.091v14.504h-3.074v-16.682zm33.997-.926c1.225 0 2.27.166 3.116.478.849.322 1.532.778 2.047 1.358a5.221 5.221 0 0 1 1.113 2.077c.22.806.33 1.692.33 2.666v10.732l-1.103.18c-.48.08-1.011.15-1.609.221-.597.062-1.24.123-1.93.178a26.363 26.363 0 0 1-2.069.08c-.965 0-1.857-.092-2.675-.298a5.933 5.933 0 0 1-2.114-.94 4.379 4.379 0 0 1-1.388-1.701 5.966 5.966 0 0 1-.494-2.543c0-.947.196-1.763.58-2.446a4.689 4.689 0 0 1 1.568-1.655c.66-.413 1.435-.72 2.31-.922a12.711 12.711 0 0 1 3.733-.245c.331.03.644.08.941.135s.558.1.775.15c.221.037.377.076.463.092v-.855a6.83 6.83 0 0 0-.162-1.502 3.447 3.447 0 0 0-.598-1.327 2.939 2.939 0 0 0-1.164-.919c-.497-.233-1.146-.352-1.94-.352-1.011 0-1.897.07-2.657.22a8.942 8.942 0 0 0-1.7.448l-.362-2.55c.392-.172 1.057-.343 1.982-.509a17.1 17.1 0 0 1 3.004-.25zm.263 15.399a28.192 28.192 0 0 0 1.93-.055 8.04 8.04 0 0 0 1.401-.181v-5.118a4.005 4.005 0 0 0-1.072-.285 11.761 11.761 0 0 0-1.796-.107c-.46 0-.956.03-1.471.092a4.59 4.59 0 0 0-1.422.417 3.095 3.095 0 0 0-1.072.855 2.258 2.258 0 0 0-.433 1.44c0 1.1.353 1.87 1.058 2.298.704.423 1.664.644 2.88.644zm11.424-14.473a38.845 38.845 0 0 1 2.807-.555 23.685 23.685 0 0 1 4.03-.3c1.364 0 2.5.19 3.401.573.901.392 1.625.925 2.164 1.624.54.69.925 1.52 1.143 2.491.22.971.33 2.038.33 3.209v9.64h-3.073v-8.982c0-1.057-.07-1.96-.214-2.712a4.68 4.68 0 0 0-.711-1.808 2.807 2.807 0 0 0-1.324-1.01 5.73 5.73 0 0 0-2.047-.317c-.328 0-.674.016-1.02.031-.353.025-.69.055-1.012.086a9.438 9.438 0 0 0-.86.12c-.252.036-.43.076-.543.091v14.504h-3.07v-16.682zm20.486-3.598a1.952 1.952 0 0 1-1.404-.552 1.9 1.9 0 0 1-.582-1.464 1.93 1.93 0 0 1 1.986-2.014 1.992 1.992 0 0 1 1.403.54c.383.367.58.858.58 1.474s-.197 1.106-.583 1.467a1.952 1.952 0 0 1-1.4.549zm1.55 20.28h-3.073v-17.176h3.073zm8.16-17.176h6.51v2.58h-6.51v7.925c0 .855.062 1.569.197 2.133.135.557.33.996.598 1.317a2.1 2.1 0 0 0 .986.68c.399.126.864.197 1.388.197.926 0 1.67-.101 2.237-.313l1.165-.447.597 2.543a10.48 10.48 0 0 1-1.614.576c-.779.236-1.655.347-2.651.347-1.162 0-2.124-.15-2.884-.448-.763-.288-1.373-.735-1.838-1.333s-.791-1.324-.969-2.194a14.449 14.449 0 0 1-.282-3.027V255.79l3.07-.527zm11.927-3.104a1.952 1.952 0 0 1-1.403-.552c-.386-.358-.582-.845-.582-1.464s.196-1.104.582-1.471a1.98 1.98 0 0 1 1.403-.543 1.992 1.992 0 0 1 1.404.54c.383.367.58.858.58 1.474s-.197 1.106-.583 1.467a1.952 1.952 0 0 1-1.4.549zm1.551 20.28h-3.074v-17.176h3.074zm4.327-8.553c0-1.52.22-2.846.659-3.983a8.366 8.366 0 0 1 1.747-2.82 7.091 7.091 0 0 1 2.518-1.685 7.753 7.753 0 0 1 2.902-.567c2.311 0 4.091.723 5.323 2.164 1.23 1.443 1.851 3.637 1.851 6.594v.509c0 .214-.018.398-.03.582h-11.762c.123 1.777.644 3.135 1.551 4.06.904.926 2.314 1.389 4.229 1.389 1.079 0 1.983-.095 2.727-.285.736-.184 1.293-.368 1.661-.54l.43 2.574c-.375.203-1.027.405-1.965.625a13.912 13.912 0 0 1-3.187.338c-1.496 0-2.789-.227-3.88-.684-1.088-.447-1.992-1.072-2.696-1.866s-1.223-1.731-1.566-2.82a12.104 12.104 0 0 1-.512-3.585zm11.792-1.685c.024-1.388-.322-2.531-1.042-3.417-.714-.895-1.7-1.342-2.957-1.342-.705 0-1.324.14-1.866.417a4.45 4.45 0 0 0-1.37 1.072 4.897 4.897 0 0 0-.87 1.514 7.317 7.317 0 0 0-.417 1.756zm11.626 8.029c1.257 0 2.188-.166 2.792-.503a1.673 1.673 0 0 0 .91-1.584 2.1 2.1 0 0 0-.895-1.778c-.594-.44-1.575-.94-2.942-1.492a49.322 49.322 0 0 1-1.893-.806 6.694 6.694 0 0 1-1.57-.971 4.263 4.263 0 0 1-1.057-1.358 4.309 4.309 0 0 1-.401-1.952c0-1.52.564-2.721 1.685-3.616 1.122-.888 2.657-1.339 4.597-1.339.484 0 .962.03 1.45.086.484.055.94.12 1.354.196s.784.16 1.103.251c.325.086.567.166.748.227l-.564 2.645c-.331-.175-.849-.356-1.554-.543s-1.55-.282-2.54-.282c-.861 0-1.606.172-2.25.509a1.71 1.71 0 0 0-.956 1.609c0 .368.071.695.212.987a2.452 2.452 0 0 0 .665.775c.3.23.668.447 1.106.643s.965.408 1.584.629a32.66 32.66 0 0 1 2.18.91 6.8 6.8 0 0 1 1.639 1.042c.447.392.796.87 1.042 1.434.236.564.361 1.247.361 2.062 0 1.594-.588 2.789-1.771 3.607-1.177.815-2.856 1.223-5.035 1.223-1.52 0-2.712-.135-3.567-.387a16.824 16.824 0 0 1-1.747-.579l.555-2.641c.353.132.92.328 1.686.594.769.267 1.795.399 3.073.399zm17.633-9.252c0-1.961.297-3.692.876-5.19.582-1.496 1.38-2.743 2.378-3.749a9.763 9.763 0 0 1 3.503-2.255 11.761 11.761 0 0 1 4.24-.76c1.484 0 2.872.248 4.18.76a9.628 9.628 0 0 1 3.457 2.255c.987 1.006 1.778 2.253 2.36 3.748.582 1.499.88 3.23.88 5.191s-.3 3.684-.88 5.182c-.582 1.499-1.373 2.752-2.36 3.757a9.653 9.653 0 0 1-3.456 2.256c-1.309.511-2.697.76-4.18.76-1.496 0-2.908-.249-4.241-.76a9.763 9.763 0 0 1-3.503-2.256 10.802 10.802 0 0 1-2.378-3.757c-.58-1.498-.876-3.22-.876-5.182zm3.37 0c0 1.388.181 2.651.534 3.779.346 1.137.846 2.102 1.498 2.892s1.44 1.404 2.381 1.836c.935.429 1.986.644 3.154.644s2.209-.215 3.134-.644 1.716-1.042 2.37-1.836c.643-.79 1.142-1.755 1.495-2.892.355-1.128.533-2.39.533-3.779s-.178-2.65-.533-3.787a8.599 8.599 0 0 0-1.496-2.884c-.653-.794-1.443-1.403-2.369-1.836s-1.967-.643-3.134-.643-2.22.214-3.154.643a6.545 6.545 0 0 0-2.38 1.836 8.323 8.323 0 0 0-1.5 2.884 12.733 12.733 0 0 0-.532 3.787zm38.195 2.908c0 1.294-.171 2.5-.508 3.598-.347 1.1-.846 2.047-1.505 2.84s-1.474 1.41-2.43 1.849c-.956.44-2.053.668-3.285.668a7.937 7.937 0 0 1-2.626-.399 8.406 8.406 0 0 1-1.701-.763v6.877h-3.074v-22.769a58.98 58.98 0 0 1 2.728-.57c1.09-.214 2.35-.315 3.778-.315 1.324 0 2.51.205 3.567.628a7.7 7.7 0 0 1 2.712 1.777c.745.778 1.327 1.72 1.734 2.825.408 1.113.613 2.366.613 3.754zm-3.205 0c0-2.007-.494-3.551-1.483-4.627-.996-1.079-2.31-1.62-3.966-1.62-.925 0-1.645.039-2.163.1s-.935.141-1.238.23v10.842c.374.306.907.604 1.615.885.705.292 1.48.43 2.31.43.889 0 1.64-.154 2.268-.475a4.229 4.229 0 0 0 1.535-1.327 5.516 5.516 0 0 0 .855-1.977c.181-.76.267-1.581.267-2.46zm6.57 0c0-1.52.218-2.846.659-3.983.438-1.134 1.026-2.075 1.746-2.82a7.079 7.079 0 0 1 2.516-1.685 7.765 7.765 0 0 1 2.902-.567c2.314 0 4.091.723 5.323 2.164 1.232 1.443 1.851 3.637 1.851 6.594v.509c0 .214-.015.398-.03.582h-11.762c.126 1.777.644 3.135 1.554 4.06.9.926 2.31 1.389 4.226 1.389 1.081 0 1.982-.095 2.727-.285.736-.184 1.293-.368 1.661-.54l.432 2.574c-.377.203-1.027.405-1.967.625a13.912 13.912 0 0 1-3.184.338c-1.496 0-2.789-.227-3.88-.684-1.09-.447-1.992-1.072-2.696-1.866s-1.226-1.731-1.57-2.82a12.104 12.104 0 0 1-.508-3.585zm11.792-1.685c.021-1.388-.322-2.531-1.042-3.417-.717-.895-1.704-1.342-2.957-1.342-.705 0-1.327.14-1.87.417a4.474 4.474 0 0 0-1.37 1.072 4.96 4.96 0 0 0-.87 1.514 7.31 7.31 0 0 0-.413 1.756h8.519zm7.633-6.444c.705-.172 1.64-.362 2.807-.555a23.685 23.685 0 0 1 4.03-.3c1.364 0 2.5.19 3.401.573.904.392 1.624.925 2.167 1.624.54.69.925 1.52 1.143 2.491.22.971.33 2.038.33 3.209v9.64h-3.073v-8.982c0-1.057-.07-1.96-.214-2.712a4.682 4.682 0 0 0-.711-1.808 2.807 2.807 0 0 0-1.324-1.01 5.73 5.73 0 0 0-2.047-.317c-.331 0-.674.016-1.02.031-.353.025-.69.055-1.012.086s-.603.07-.86.12c-.252.036-.43.076-.543.091v14.504h-3.074v-16.682zm37.061 13.517a93.979 93.979 0 0 0-.88-2.023c-.361-.809-.75-1.695-1.167-2.641a173.289 173.289 0 0 0-1.342-2.918c-.478-1.005-.916-1.952-1.34-2.847a75.687 75.687 0 0 0-1.167-2.39 41.553 41.553 0 0 0-.88-1.624 205.958 205.958 0 0 0-.594 8.446 580.643 580.643 0 0 0-.392 9.162h-3.144c.086-1.983.187-3.984.297-5.997s.236-3.999.386-5.945c.141-1.949.297-3.846.46-5.697.165-1.85.346-3.597.542-5.252h2.807a56.068 56.068 0 0 1 1.922 3.432c.68 1.327 1.363 2.706 2.044 4.15a201.56 201.56 0 0 1 1.985 4.326c.635 1.44 1.223 2.758 1.747 3.953a661.884 661.884 0 0 0 1.747-3.953c.643-1.44 1.302-2.883 1.985-4.327a136.979 136.979 0 0 1 2.047-4.149 52.981 52.981 0 0 1 1.922-3.432h2.804a431.301 431.301 0 0 1 1.685 22.891h-3.135c-.11-3.08-.245-6.138-.398-9.162a205.799 205.799 0 0 0-.598-8.446c-.217.377-.508.92-.87 1.624-.368.705-.76 1.496-1.174 2.39a359.38 359.38 0 0 1-1.342 2.847c-.469.996-.92 1.977-1.333 2.918l-1.177 2.641c-.358.815-.658 1.49-.876 2.023h-2.574zm23.847-14.443c1.232 0 2.274.166 3.12.478.849.322 1.532.778 2.047 1.358a5.221 5.221 0 0 1 1.112 2.077c.22.806.331 1.692.331 2.666v10.732l-1.103.18c-.481.08-1.011.15-1.609.221a81.11 81.11 0 0 1-1.93.178 26.36 26.36 0 0 1-2.069.08c-.965 0-1.857-.092-2.672-.298a5.933 5.933 0 0 1-2.118-.94 4.379 4.379 0 0 1-1.388-1.701 5.966 5.966 0 0 1-.493-2.543c0-.947.196-1.763.582-2.446.38-.68.907-1.229 1.563-1.655a7.538 7.538 0 0 1 2.314-.922 12.711 12.711 0 0 1 3.732-.245c.331.03.644.08.94.135s.558.1.78.15c.217.037.373.076.459.092v-.855a6.83 6.83 0 0 0-.163-1.502 3.45 3.45 0 0 0-.597-1.327 2.939 2.939 0 0 0-1.165-.919c-.496-.233-1.146-.352-1.94-.352-1.01 0-1.896.07-2.656.22a8.942 8.942 0 0 0-1.701.448l-.362-2.55c.393-.172 1.058-.343 1.983-.509a17.1 17.1 0 0 1 3.003-.25zm.267 15.399a28.192 28.192 0 0 0 1.93-.055 8.04 8.04 0 0 0 1.4-.181v-5.118a4.005 4.005 0 0 0-1.072-.285 11.758 11.758 0 0 0-1.795-.107c-.46 0-.957.03-1.471.092a4.59 4.59 0 0 0-1.422.417 3.095 3.095 0 0 0-1.073.855 2.258 2.258 0 0 0-.432 1.44c0 1.1.352 1.87 1.057 2.298.705.423 1.664.644 2.88.644zm17.773-15.328a13.355 13.355 0 0 1 1.912.18c.338.056.635.11.91.166s.479.101.613.147l-.527 2.675a11.654 11.654 0 0 0-1.207-.312 10.879 10.879 0 0 0-2.163-.184c-.573 0-1.137.064-1.701.184-.564.122-.935.202-1.103.248v14.433h-3.077V261.31a19.888 19.888 0 0 1 2.712-.744c1.073-.236 2.29-.346 3.631-.346zm12.613 8.093a21.515 21.515 0 0 1 2.103 1.878c.735.754 1.464 1.563 2.178 2.433s1.389 1.747 2.032 2.642a30.464 30.464 0 0 1 1.615 2.491h-3.598a27.702 27.702 0 0 0-1.6-2.36 34.226 34.226 0 0 0-1.9-2.31 27.417 27.417 0 0 0-2.012-2.032 17.905 17.905 0 0 0-1.953-1.553v8.255h-3.073v-25.1l3.073-.53v15.662c.525-.534 1.113-1.113 1.747-1.756a66.133 66.133 0 0 0 1.885-1.943l1.756-1.906a91.87 91.87 0 0 0 1.419-1.6h3.597c-.502.549-1.057 1.152-1.645 1.82a170.73 170.73 0 0 1-1.851 1.998l-1.937 2.014c-.65.668-1.263 1.302-1.836 1.9zm9.221.891c0-1.52.22-2.846.659-3.983.438-1.134 1.027-2.075 1.747-2.82a7.064 7.064 0 0 1 2.519-1.685 7.75 7.75 0 0 1 2.899-.567c2.313 0 4.094.723 5.322 2.164 1.232 1.443 1.851 3.637 1.851 6.594v.509c0 .214-.015.398-.03.582h-11.761c.125 1.777.643 3.135 1.553 4.06.901.926 2.314 1.389 4.226 1.389 1.082 0 1.983-.095 2.727-.285.736-.184 1.293-.368 1.661-.54l.432 2.574c-.377.203-1.026.405-1.967.625a13.912 13.912 0 0 1-3.184.338c-1.495 0-2.789-.227-3.88-.684-1.09-.447-1.991-1.072-2.696-1.866s-1.226-1.731-1.57-2.82a12.098 12.098 0 0 1-.508-3.585zm11.792-1.685c.021-1.388-.322-2.531-1.042-3.417-.714-.895-1.704-1.342-2.957-1.342-.705 0-1.324.14-1.866.417a4.48 4.48 0 0 0-1.373 1.072 4.96 4.96 0 0 0-.87 1.514 7.31 7.31 0 0 0-.414 1.756h8.519zm10.505-6.938h6.505v2.58h-6.505v7.925c0 .855.061 1.569.196 2.133.132.557.328.996.594 1.317a2.124 2.124 0 0 0 .99.68c.399.126.861.197 1.385.197.926 0 1.67-.101 2.237-.313.555-.211.95-.361 1.165-.447l.597 2.543c-.306.154-.845.35-1.615.576-.775.236-1.654.347-2.65.347-1.159 0-2.124-.15-2.884-.448-.76-.288-1.373-.735-1.836-1.333s-.79-1.324-.97-2.194a14.458 14.458 0 0 1-.283-3.027V255.79l3.074-.527zm25.532 8.623c0 1.294-.171 2.5-.508 3.598a8.255 8.255 0 0 1-1.505 2.84 6.834 6.834 0 0 1-2.43 1.849c-.956.44-2.053.668-3.285.668a7.937 7.937 0 0 1-2.626-.399 8.406 8.406 0 0 1-1.701-.763v6.877h-3.074v-22.769a59.15 59.15 0 0 1 2.728-.57c1.09-.214 2.353-.315 3.778-.315 1.327 0 2.51.205 3.567.628a7.673 7.673 0 0 1 2.712 1.777c.748.778 1.327 1.72 1.734 2.825.408 1.113.613 2.366.613 3.754zm-3.205 0c0-2.007-.493-3.551-1.48-4.627-.996-1.079-2.314-1.62-3.969-1.62-.925 0-1.645.039-2.163.1s-.935.141-1.238.23v10.842c.374.306.907.604 1.615.885.705.292 1.48.43 2.31.43.89 0 1.64-.154 2.268-.475a4.229 4.229 0 0 0 1.535-1.327 5.516 5.516 0 0 0 .858-1.977c.178-.76.264-1.581.264-2.46zm12.683 8.884c-1.887-.049-3.236-.447-4.03-1.226-.79-.766-1.182-1.964-1.182-3.597v-20.608l3.074-.53v20.647c0 .503.04.926.125 1.257.092.328.236.594.43.79a1.946 1.946 0 0 0 .796.448c.328.1.735.18 1.22.245l-.43 2.574zm9.417-17.939c1.232 0 2.274.166 3.12.478.849.322 1.532.778 2.047 1.358a5.221 5.221 0 0 1 1.112 2.077c.221.806.331 1.692.331 2.666v10.732l-1.106.18c-.478.08-1.011.15-1.606.221-.597.062-1.24.123-1.93.178a26.36 26.36 0 0 1-2.069.08c-.965 0-1.86-.092-2.675-.298a5.933 5.933 0 0 1-2.114-.94 4.379 4.379 0 0 1-1.389-1.701 5.966 5.966 0 0 1-.493-2.543c0-.947.196-1.763.58-2.446a4.689 4.689 0 0 1 1.568-1.655c.66-.413 1.434-.72 2.31-.922a12.711 12.711 0 0 1 3.733-.245c.331.03.644.08.941.135s.558.1.775.15c.22.037.377.076.463.092v-.855c0-.509-.055-1.012-.162-1.502a3.45 3.45 0 0 0-.598-1.327 2.939 2.939 0 0 0-1.168-.919c-.493-.233-1.146-.352-1.936-.352-1.011 0-1.9.07-2.657.22a8.942 8.942 0 0 0-1.7.448l-.362-2.55c.392-.172 1.057-.343 1.982-.509a17.1 17.1 0 0 1 3.003-.25zm.267 15.399a28.192 28.192 0 0 0 1.93-.055 8.04 8.04 0 0 0 1.401-.181v-5.118a4.005 4.005 0 0 0-1.073-.285 11.758 11.758 0 0 0-1.795-.107c-.463 0-.956.03-1.474.092a4.59 4.59 0 0 0-1.42.417 3.095 3.095 0 0 0-1.072.855 2.258 2.258 0 0 0-.432 1.44c0 1.1.353 1.87 1.058 2.298.704.423 1.66.644 2.877.644zm18.886 2.61c-1.388 0-2.605-.226-3.647-.667a7.278 7.278 0 0 1-2.641-1.848 7.603 7.603 0 0 1-1.606-2.823 11.703 11.703 0 0 1-.527-3.616c0-1.323.19-2.53.582-3.637.383-1.097.926-2.053 1.63-2.853a7.201 7.201 0 0 1 2.596-1.882 8.344 8.344 0 0 1 3.417-.683c.766 0 1.544.07 2.313.196.766.135 1.505.346 2.21.635l-.69 2.604a7.437 7.437 0 0 0-1.605-.527 8.933 8.933 0 0 0-1.931-.196c-1.716 0-3.034.542-3.953 1.615-.907 1.085-1.36 2.66-1.36 4.728 0 .926.1 1.772.312 2.544.205.766.533 1.43.987 1.98.456.551 1.03.974 1.734 1.271s1.57.448 2.58.448c.815 0 1.55-.08 2.21-.23.659-.153 1.176-.319 1.553-.5l.43 2.577c-.181.11-.43.215-.76.316-.328.101-.705.187-1.122.267a19.594 19.594 0 0 1-1.34.196 11.936 11.936 0 0 1-1.372.086zm6.947-8.954c0-1.52.217-2.846.659-3.983.438-1.134 1.026-2.075 1.746-2.82a7.079 7.079 0 0 1 2.516-1.685 7.765 7.765 0 0 1 2.902-.567c2.314 0 4.091.723 5.323 2.164s1.851 3.637 1.851 6.594v.509c0 .214-.015.398-.03.582h-11.762c.126 1.777.644 3.135 1.554 4.06.9.926 2.31 1.389 4.226 1.389 1.081 0 1.982-.095 2.727-.285.735-.184 1.293-.368 1.66-.54l.433 2.574c-.377.203-1.027.405-1.967.625a13.912 13.912 0 0 1-3.184.338c-1.496 0-2.789-.227-3.88-.684-1.09-.447-1.992-1.072-2.696-1.866s-1.226-1.731-1.57-2.82a12.098 12.098 0 0 1-.508-3.585zm11.792-1.685c.021-1.388-.322-2.531-1.042-3.417-.717-.895-1.704-1.342-2.957-1.342-.705 0-1.327.14-1.87.417a4.474 4.474 0 0 0-1.37 1.072 4.96 4.96 0 0 0-.87 1.514 7.31 7.31 0 0 0-.413 1.756h8.519z" fill="#a4bcc2"/><path d="M460.004 195.659c4 0 7.3-.328 9.901-.996 2.605-.665 4.689-1.575 6.264-2.727 1.578-1.147 2.666-2.51 3.27-4.085a14.565 14.565 0 0 0 .91-5.271c0-4.106-1.937-7.532-5.81-10.25-3.88-2.728-10.536-5.664-19.977-8.814a147.067 147.067 0 0 1-12.353-4.995 45.31 45.31 0 0 1-11.078-7.082 33.708 33.708 0 0 1-7.988-10.351c-2.063-4.054-3.09-8.991-3.09-14.801s1.089-11.047 3.267-15.708a33.53 33.53 0 0 1 9.267-11.9c3.993-3.266 8.838-5.776 14.528-7.538 5.685-1.75 12.105-2.629 19.245-2.629 8.476 0 15.806.907 21.978 2.727 6.178 1.814 11.258 3.812 15.254 5.988l-8.166 22.34a77.964 77.964 0 0 0-11.716-4.815c-4.302-1.388-9.478-2.083-15.53-2.083-6.781 0-11.657.934-14.62 2.813-2.973 1.878-4.444 4.75-4.444 8.623 0 2.304.54 4.241 1.63 5.813 1.089 1.575 2.636 2.994 4.634 4.269 1.998 1.272 4.296 2.42 6.895 3.45a215.1 215.1 0 0 0 8.626 3.178c6.54 2.421 12.23 4.814 17.075 7.174 4.839 2.36 8.868 5.118 12.074 8.259a29.905 29.905 0 0 1 7.17 11.087c1.579 4.231 2.372 9.383 2.372 15.435 0 11.746-4.124 20.853-12.355 27.331s-20.645 9.714-37.233 9.714c-5.565 0-10.59-.33-15.067-.995-4.487-.669-8.446-1.484-11.903-2.455-3.447-.965-6.41-2.001-8.895-3.089a69.164 69.164 0 0 1-6.267-3.083l7.989-22.523c3.757 2.062 8.39 3.904 13.9 5.543 5.504 1.63 12.254 2.446 20.243 2.446zm105.698 0c3.996 0 7.296-.328 9.898-.996s4.688-1.575 6.266-2.727c1.575-1.147 2.666-2.51 3.27-4.085a14.565 14.565 0 0 0 .91-5.271c0-4.106-1.937-7.532-5.81-10.25-3.883-2.728-10.538-5.664-19.977-8.814a147.067 147.067 0 0 1-12.355-4.995 45.313 45.313 0 0 1-11.078-7.082 33.708 33.708 0 0 1-7.99-10.351c-2.062-4.054-3.088-8.991-3.088-14.801s1.09-11.047 3.27-15.708a33.53 33.53 0 0 1 9.266-11.9c3.99-3.266 8.835-5.776 14.526-7.538 5.684-1.75 12.104-2.629 19.247-2.629 8.476 0 15.806.907 21.975 2.727 6.178 1.814 11.259 3.812 15.258 5.988l-8.17 22.34a77.964 77.964 0 0 0-11.712-4.815c-4.303-1.388-9.478-2.083-15.53-2.083-6.782 0-11.658.934-14.62 2.813-2.973 1.878-4.444 4.75-4.444 8.623 0 2.304.54 4.241 1.627 5.813 1.09 1.575 2.635 2.994 4.633 4.269 2.001 1.272 4.297 2.42 6.901 3.45 2.602 1.03 5.48 2.09 8.624 3.178 6.536 2.421 12.227 4.814 17.074 7.174 4.836 2.36 8.866 5.118 12.074 8.259a29.905 29.905 0 0 1 7.17 11.087c1.579 4.231 2.37 9.383 2.37 15.435 0 11.746-4.125 20.853-12.356 27.331s-20.642 9.714-37.233 9.714c-5.564 0-10.59-.33-15.067-.995-4.483-.669-8.443-1.484-11.9-2.455-3.45-.965-6.413-2.001-8.898-3.089a69.157 69.157 0 0 1-6.264-3.083l7.989-22.523c3.754 2.062 8.387 3.904 13.9 5.543 5.504 1.63 12.255 2.446 20.244 2.446zM712.986 91.417h28.333v125.855h-28.333v-53.391h-47.578v53.397h-28.334V91.423h28.334v48.127h47.578zm111.489 22.674c0 3.937-.585 7.4-1.762 10.388-1.168 2.985-2.777 5.485-4.811 7.502a19.729 19.729 0 0 1-7.27 4.547 26.452 26.452 0 0 1-9.054 1.523 25.818 25.818 0 0 1-8.9-1.523 20.449 20.449 0 0 1-7.299-4.547c-2.084-2.017-3.723-4.517-4.915-7.502s-1.796-6.45-1.796-10.388c0-3.941.62-7.401 1.857-10.389 1.241-2.988 2.917-5.5 5.02-7.535a20.562 20.562 0 0 1 7.3-4.581 25.146 25.146 0 0 1 8.733-1.526 25.802 25.802 0 0 1 8.886 1.526 20.256 20.256 0 0 1 7.309 4.58c2.078 2.036 3.717 4.548 4.91 7.536s1.795 6.448 1.795 10.389zm-35.112 0c0 2.258.276 4.29.821 6.107.558 1.814 1.358 3.374 2.39 4.68a10.543 10.543 0 0 0 3.822 3.018c1.501.71 3.23 1.063 5.179 1.063 1.9 0 3.616-.352 5.145-1.063a10.542 10.542 0 0 0 3.849-3.019c1.035-1.305 1.835-2.865 2.39-4.68.551-1.813.824-3.848.824-6.106s-.276-4.306-.824-6.145a14.08 14.08 0 0 0-2.39-4.71 10.542 10.542 0 0 0-3.85-3.018 12.08 12.08 0 0 0-5.141-1.063c-1.952 0-3.678.367-5.182 1.094a10.864 10.864 0 0 0-3.819 3.055 14.08 14.08 0 0 0-2.39 4.71c-.551 1.839-.827 3.861-.827 6.077zm75.534 5.57c0 2.703-.328 5.161-.993 7.374-.668 2.212-1.639 4.115-2.917 5.706a13.255 13.255 0 0 1-4.78 3.72c-1.906.882-4.094 1.324-6.573 1.324-1.37 0-2.657-.132-3.85-.396a18.58 18.58 0 0 1-3.456-1.127v13.143h-9.886v-46.003a38.127 38.127 0 0 1 3.05-.763 53.32 53.32 0 0 1 3.621-.631 72.412 72.412 0 0 1 3.85-.43 44.57 44.57 0 0 1 3.747-.168c2.878 0 5.442.43 7.698 1.296 2.258.864 4.164 2.078 5.709 3.65a15.567 15.567 0 0 1 3.551 5.743c.822 2.258 1.23 4.78 1.23 7.566zm-10.088.27c0-3.055-.683-5.5-2.053-7.336-1.373-1.838-3.41-2.755-6.107-2.755-.889 0-1.71.03-2.464.098s-1.37.147-1.857.236v17.857c.619.398 1.428.729 2.42.992s2.008.402 3.029.402c4.688 0 7.032-3.163 7.032-9.494zm16.06 0c0-3.095.482-5.81 1.432-8.13.95-2.325 2.2-4.26 3.745-5.81a15.693 15.693 0 0 1 5.347-3.52 16.762 16.762 0 0 1 6.208-1.196c4.956 0 8.869 1.517 11.746 4.548 2.878 3.034 4.321 7.492 4.321 13.379 0 .576-.024 1.204-.073 1.888a54.349 54.349 0 0 1-.132 1.83h-22.438a6.588 6.588 0 0 0 2.862 4.84c1.677 1.196 3.935 1.794 6.767 1.794 1.817 0 3.597-.166 5.344-.497s3.178-.735 4.28-1.226l1.328 8.03a13.042 13.042 0 0 1-2.127.796 28.337 28.337 0 0 1-2.948.698 47.56 47.56 0 0 1-3.487.497 34.3 34.3 0 0 1-3.717.2c-3.144 0-5.872-.46-8.2-1.395-2.32-.929-4.248-2.2-5.77-3.815a15.098 15.098 0 0 1-3.387-5.743 22.765 22.765 0 0 1-1.097-7.17zm23.241-3.784a10.364 10.364 0 0 0-.438-2.458 6.33 6.33 0 0 0-1.122-2.123 5.976 5.976 0 0 0-1.93-1.527c-.775-.398-1.74-.597-2.884-.597-1.103 0-2.062.19-2.853.564a5.816 5.816 0 0 0-1.992 1.492 6.742 6.742 0 0 0-1.231 2.16 13.974 13.974 0 0 0-.635 2.489zm17.192-12.745c1.679-.49 3.848-.938 6.5-1.36a53.652 53.652 0 0 1 8.365-.632c2.963 0 5.433.386 7.4 1.165 1.977.772 3.537 1.869 4.68 3.285a12.87 12.87 0 0 1 2.464 5.044c.484 1.949.729 4.115.729 6.505v19.714h-9.898V118.6c0-3.187-.42-5.439-1.257-6.769s-2.408-1.992-4.716-1.992c-.704 0-1.455.03-2.255.098a37.478 37.478 0 0 0-2.127.236v26.949h-9.885zm-118.427 67.374a137.48 137.48 0 0 1 2.767 5.409 323.693 323.693 0 0 1 6.619 14.638c1.112 2.611 2.154 5.072 3.126 7.37.98-2.298 2.022-4.759 3.125-7.37a420.61 420.61 0 0 1 3.365-7.667 285.5 285.5 0 0 1 3.264-6.971 147.974 147.974 0 0 1 2.758-5.41h9.432c.438 3.06.846 6.476 1.223 10.254.376 3.788.714 7.732.995 11.823a1046.4 1046.4 0 0 1 1.425 23.927h-10.088c-.125-4.468-.306-9.338-.527-14.605a413.388 413.388 0 0 0-.993-15.93l-2.666 6.179a719.843 719.843 0 0 0-2.902 6.763 987.952 987.952 0 0 1-2.758 6.478 932.612 932.612 0 0 0-2.267 5.274h-7.235a1379.286 1379.286 0 0 1-5.026-11.752c-.956-2.256-1.921-4.514-2.893-6.763-.98-2.259-1.866-4.321-2.666-6.178a384.245 384.245 0 0 0-.996 15.929 1096.136 1096.136 0 0 0-.533 14.605h-10.088a1045.39 1045.39 0 0 1 1.428-23.927c.288-4.091.616-8.035.993-11.823.377-3.778.785-7.195 1.232-10.253zm59.213 10.161c2.924 0 5.354.328 7.3.993 1.952.66 3.511 1.618 4.679 2.856 1.177 1.238 2.007 2.743 2.494 4.514.484 1.765.73 3.739.73 5.905v20.578c-1.42.315-3.387.674-5.915 1.1-2.512.414-5.57.625-9.153.625a28.91 28.91 0 0 1-6.141-.595c-1.839-.398-3.417-1.05-4.75-1.96a8.93 8.93 0 0 1-3.049-3.552c-.714-1.46-1.066-3.252-1.066-5.378 0-2.03.407-3.754 1.231-5.173a9.386 9.386 0 0 1 3.286-3.386 14.853 14.853 0 0 1 4.71-1.83 26.446 26.446 0 0 1 5.512-.564c1.287 0 2.421.056 3.417.166.996.116 1.802.257 2.421.429v-.922c0-1.686-.509-3.034-1.526-4.055-1.011-1.01-2.786-1.52-5.308-1.52-1.685 0-3.34.117-4.98.362a21.371 21.371 0 0 0-4.246 1.027l-1.263-7.968c.58-.172 1.293-.358 2.154-.564.864-.196 1.805-.367 2.823-.524s2.093-.29 3.223-.398a34.107 34.107 0 0 1 3.417-.166zm.8 28.934c.971 0 1.9-.015 2.782-.06s1.594-.111 2.127-.197v-7.502a18.343 18.343 0 0 0-1.79-.266 19.71 19.71 0 0 0-4.81.03 6.628 6.628 0 0 0-2.158.635 3.67 3.67 0 0 0-1.468 1.256 3.54 3.54 0 0 0-.53 1.992c0 1.55.521 2.623 1.56 3.218 1.042.597 2.47.894 4.287.894zm44.406-19.244c-.889-.22-1.93-.457-3.122-.699a19.324 19.324 0 0 0-3.85-.367c-.618 0-1.363.06-2.224.171a13.168 13.168 0 0 0-1.961.362v26.685h-9.886v-33.06a59.7 59.7 0 0 1 6.273-1.755c2.405-.558 5.096-.83 8.065-.83.527 0 1.168.03 1.922.1a38.121 38.121 0 0 1 4.517.666c.75.15 1.394.337 1.918.557l-1.655 8.17zm16.854 3.775c.972-1.057 1.983-2.154 3.019-3.297a200.31 200.31 0 0 0 3.018-3.401 632.83 632.83 0 0 0 2.752-3.2c.861-1.01 1.6-1.89 2.219-2.644h11.767a482.906 482.906 0 0 1-6.877 7.722 195.267 195.267 0 0 1-7.33 7.581c1.327 1.202 2.697 2.627 4.116 4.29a107.152 107.152 0 0 1 4.11 5.149 75.936 75.936 0 0 1 6.444 10.177H926.01a188.767 188.767 0 0 0-2.415-3.825c-.91-1.397-1.87-2.788-2.887-4.195a56.128 56.128 0 0 0-3.214-4.02 26.96 26.96 0 0 0-3.347-3.264v15.304h-9.885v-49.916l9.885-1.59v29.132zm24.5 5.185c0-3.095.478-5.81 1.425-8.13.95-2.328 2.207-4.259 3.748-5.81a15.635 15.635 0 0 1 5.347-3.52 16.839 16.839 0 0 1 6.209-1.19c4.955 0 8.868 1.511 11.746 4.545 2.877 3.028 4.32 7.49 4.32 13.376a57.871 57.871 0 0 1-.202 3.717h-22.44c.226 2.038 1.176 3.653 2.862 4.842 1.676 1.201 3.934 1.799 6.766 1.799a28.131 28.131 0 0 0 5.344-.503c1.747-.33 3.175-.735 4.281-1.226l1.327 8.03c-.527.266-1.241.532-2.127.799s-1.866.496-2.948.699a48.76 48.76 0 0 1-3.487.493 34.72 34.72 0 0 1-3.717.205c-3.144 0-5.871-.472-8.2-1.397-2.32-.932-4.248-2.2-5.77-3.818a15.083 15.083 0 0 1-3.387-5.746 22.76 22.76 0 0 1-1.097-7.165zm23.238-3.787a10.407 10.407 0 0 0-.442-2.452 6.205 6.205 0 0 0-1.118-2.126 6.04 6.04 0 0 0-1.93-1.53c-.776-.392-1.741-.594-2.884-.594-1.104 0-2.063.187-2.853.564a5.822 5.822 0 0 0-1.992 1.498 6.637 6.637 0 0 0-1.232 2.155 13.93 13.93 0 0 0-.634 2.485zm16.854-22.634 9.895-1.593v10.287h11.883v8.234h-11.883v12.285c0 2.078.367 3.739 1.097 4.977s2.194 1.86 4.413 1.86c1.06 0 2.157-.105 3.285-.3a17.528 17.528 0 0 0 3.088-.828l1.389 7.695a27.705 27.705 0 0 1-3.984 1.262c-1.456.353-3.251.533-5.369.533-2.706 0-4.94-.367-6.71-1.097-1.766-.729-3.185-1.746-4.251-3.058-1.057-1.3-1.802-2.884-2.219-4.74a27.84 27.84 0 0 1-.634-6.172zm62.265 26.155c0 2.706-.33 5.157-.996 7.37-.668 2.209-1.64 4.115-2.917 5.706a13.222 13.222 0 0 1-4.78 3.717c-1.906.885-4.094 1.333-6.574 1.333a17.633 17.633 0 0 1-7.305-1.533v13.144h-9.886V183.06c.889-.267 1.9-.527 3.05-.766 1.151-.245 2.359-.45 3.621-.628s2.544-.322 3.85-.432a44.74 44.74 0 0 1 3.747-.166c2.88 0 5.442.43 7.7 1.293 2.256.865 4.162 2.078 5.707 3.647a15.616 15.616 0 0 1 3.551 5.746c.825 2.258 1.232 4.78 1.232 7.566zm-10.09.266c0-3.049-.684-5.497-2.054-7.339-1.373-1.832-3.41-2.752-6.107-2.752a26.593 26.593 0 0 0-4.321.331v17.86c.619.398 1.428.729 2.42.995 1 .267 2.011.399 3.028.399 4.689 0 7.033-3.169 7.033-9.494zm31.664 17.86c-2.878-.05-5.213-.362-7-.935-1.795-.57-3.217-1.379-4.25-2.42a7.967 7.967 0 0 1-2.123-3.788 20.394 20.394 0 0 1-.567-5.01v-38.428l9.889-1.594v38.03c0 .888.07 1.685.202 2.39.132.707.383 1.311.76 1.798.377.485.92.886 1.63 1.192.705.313 1.655.51 2.856.595zm20.58-36.51c2.924 0 5.354.328 7.3.993 1.952.66 3.511 1.618 4.679 2.856 1.177 1.238 2.007 2.743 2.494 4.514a22.34 22.34 0 0 1 .727 5.905v20.578c-1.42.315-3.387.674-5.912 1.1-2.512.414-5.574.625-9.156.625a28.913 28.913 0 0 1-6.138-.595c-1.842-.398-3.417-1.05-4.75-1.96a8.93 8.93 0 0 1-3.049-3.552c-.714-1.46-1.066-3.252-1.066-5.378 0-2.03.407-3.754 1.228-5.173a9.386 9.386 0 0 1 3.286-3.386c1.372-.84 2.941-1.453 4.713-1.83a26.443 26.443 0 0 1 5.51-.564c1.286 0 2.42.056 3.42.166.995.116 1.801.257 2.42.429v-.922c0-1.686-.509-3.034-1.529-4.055-1.011-1.01-2.782-1.52-5.308-1.52-1.685 0-3.34.117-4.976.362a21.46 21.46 0 0 0-4.25 1.027l-1.263-7.968a42.474 42.474 0 0 1 2.157-.564c.861-.196 1.802-.367 2.82-.524s2.096-.29 3.223-.398a34.212 34.212 0 0 1 3.42-.166zm.797 28.934c.974 0 1.9-.015 2.785-.06s1.594-.111 2.124-.197v-7.502a18.343 18.343 0 0 0-1.786-.266 19.71 19.71 0 0 0-4.812.03 6.625 6.625 0 0 0-2.157.635 3.647 3.647 0 0 0-1.468 1.256 3.54 3.54 0 0 0-.533 1.992c0 1.55.527 2.623 1.563 3.218 1.042.597 2.467.894 4.287.894zm21.702-10.55c0-2.525.408-4.903 1.232-7.134a16.9 16.9 0 0 1 3.552-5.84 16.845 16.845 0 0 1 5.638-3.954c2.216-.971 4.735-1.456 7.57-1.456 1.86 0 3.56.163 5.114.49 1.544.338 3.049.81 4.504 1.429l-2.053 7.906a25.649 25.649 0 0 0-3.055-.935 15.904 15.904 0 0 0-3.717-.392c-2.918 0-5.096.9-6.54 2.721-1.434 1.808-2.154 4.198-2.154 7.165 0 3.144.674 5.574 2.023 7.305 1.348 1.726 3.708 2.59 7.072 2.59a23.7 23.7 0 0 0 3.85-.337 16.364 16.364 0 0 0 3.784-1.06l1.397 8.099c-1.152.487-2.596.91-4.32 1.262s-3.629.533-5.707.533c-3.184 0-5.926-.478-8.234-1.434-2.298-.95-4.192-2.243-5.675-3.882a15.23 15.23 0 0 1-3.254-5.808 24.785 24.785 0 0 1-1.027-7.268zm31.533.266c0-3.095.478-5.81 1.428-8.13.95-2.328 2.2-4.259 3.744-5.81a15.635 15.635 0 0 1 5.348-3.52 16.839 16.839 0 0 1 6.208-1.19c4.955 0 8.869 1.511 11.746 4.545 2.878 3.028 4.32 7.49 4.32 13.376a57.871 57.871 0 0 1-.201 3.717h-22.44c.226 2.038 1.176 3.653 2.861 4.842 1.676 1.201 3.935 1.799 6.766 1.799a28.131 28.131 0 0 0 5.345-.503c1.75-.33 3.178-.735 4.28-1.226l1.328 8.03c-.528.266-1.242.532-2.127.799s-1.866.496-2.948.699a48.76 48.76 0 0 1-3.487.493 34.72 34.72 0 0 1-3.717.205c-3.145 0-5.872-.472-8.2-1.397-2.32-.932-4.248-2.2-5.771-3.818a15.083 15.083 0 0 1-3.386-5.746 22.762 22.762 0 0 1-1.097-7.165zm23.237-3.787c-.046-.84-.196-1.655-.438-2.452s-.62-1.507-1.122-2.126a6.04 6.04 0 0 0-1.93-1.53c-.776-.392-1.74-.594-2.884-.594-1.103 0-2.062.187-2.853.564a5.825 5.825 0 0 0-1.992 1.498 6.637 6.637 0 0 0-1.232 2.155 13.93 13.93 0 0 0-.634 2.485z" fill="#02558c"/><path d="M156.779 94.62a11.81 11.81 0 1 0 20.366-11.967l-23.9-40.698a11.811 11.811 0 0 0-20.368 11.963z" fill="#ff9e1a"/><path d="m101.188 87.145 28.621 48.746a11.71 11.71 0 1 0 20.194-11.86l-28.621-48.748a11.712 11.712 0 1 0-20.194 11.86z" fill="#0085ca"/><path d="M419.524 38.847c-.904-1.569-2.835-2.776-6.66-2.684H253.753l-15.016.126c-10.34-.261-13.91 7.084-13.91 7.084l-5.552 9.74-69.111 119.28-1.514 2.66-5.553 9.592c-1.832 3.218-4.314 1.116-4.799-.043L55.503 42.96a13.667 13.667 0 1 0-23.672 13.667l30.01 50.225 59.204 103.188c1.624 2.473 5.464 6.766 12.723 6.766h180.558c1.713-.055 6.254-.677 9.144-5.721l8.13-14.194L410.324 61.34l6.016-10.496 2.69-4.7s.622-1.168.81-1.753c.091-.297.183-.635.244-.98.236-1.319.285-3.099-.56-4.567zM301.042 186.19l-123.646-.245 69.406-118.93h123.743l-69.5 119.175z" fill="#02558c"/><path d="M97.614 57.932a11.71 11.71 0 1 0-11.859-20.194 11.71 11.71 0 0 0 11.86 20.194z" fill="#0085ca"/></svg>